PathFileType	4	(X/Y/Z)	Kane _Static
DataRate	CameraRate	NumFrames	NumMarkers	Units	OrigDataRate	OrigDataStartFrame	OrigNumFrames
250	250	4	66	mm	250	103	200
Frame#	Time	LASI			RASI			LPSI			RPSI			C7			T10			CLAV			STRN			RTH1			RTH2			RTH3			RTB1			RTB2			RTB3			RCAL			RMT1			RMT2			LTH1			LTH2			LTH3			LTB1			LTB2			LTB3			LCAL			LMT1			LMT2			RLFC			RMFC			LLFC			LMFC			RMMAL			RLMAL			LMMAL			LLMAL			G_LCAL			G_LMT1			G_LMT2			G_RCAL			G_RMT1			G_RMT2			LAJC			LKJC			OPelvis			RAJC			RKJC			Reg_LHJC			Reg_RHJC			SACR			fun_LAJC			fun_LHJC			fun_LKJC			fun_LLAJC			fun_LLKJC			fun_LMAJC			fun_LMKJC			fun_RAJC			fun_RHJC			fun_RKJC			fun_RLAJC			fun_RLKJC			fun_RMAJC			fun_RMKJC			RHJC			LHJC			G_RAJC			G_LAJC		
		X1	Y1	Z1	X2	Y2	Z2	X3	Y3	Z3	X4	Y4	Z4	X5	Y5	Z5	X6	Y6	Z6	X7	Y7	Z7	X8	Y8	Z8	X9	Y9	Z9	X10	Y10	Z10	X11	Y11	Z11	X12	Y12	Z12	X13	Y13	Z13	X14	Y14	Z14	X15	Y15	Z15	X16	Y16	Z16	X17	Y17	Z17	X18	Y18	Z18	X19	Y19	Z19	X20	Y20	Z20	X21	Y21	Z21	X22	Y22	Z22	X23	Y23	Z23	X24	Y24	Z24	X25	Y25	Z25	X26	Y26	Z26	X27	Y27	Z27	X28	Y28	Z28	X29	Y29	Z29	X30	Y30	Z30	X31	Y31	Z31	X32	Y32	Z32	X33	Y33	Z33	X34	Y34	Z34	X35	Y35	Z35	X36	Y36	Z36	X37	Y37	Z37	X38	Y38	Z38	X39	Y39	Z39	X40	Y40	Z40	X41	Y41	Z41	X42	Y42	Z42	X43	Y43	Z43	X44	Y44	Z44	X45	Y45	Z45	X46	Y46	Z46	X47	Y47	Z47	X48	Y48	Z48	X49	Y49	Z49	X50	Y50	Z50	X51	Y51	Z51	X52	Y52	Z52	X53	Y53	Z53	X54	Y54	Z54	X55	Y55	Z55	X56	Y56	Z56	X57	Y57	Z57	X58	Y58	Z58	X59	Y59	Z59	X60	Y60	Z60	X61	Y61	Z61	X62	Y62	Z62	X63	Y63	Z63	X64	Y64	Z64	X65	Y65	Z65	X66	Y66	Z66	
92	0.368	561.974554	1039.761278	-666.132016	560.393310	1038.968601	-460.211740	389.835428	1108.827987	-619.765091	387.534807	1103.637032	-507.634507	386.175464	1537.797258	-565.739425	371.697716	1299.784501	-563.176868	522.827988	1496.758725	-561.150401	597.751416	1327.806872	-557.629481	481.315937	899.034979	-389.687773	574.168498	793.199281	-459.062747	482.580431	695.152310	-388.214095	469.082456	412.340012	-481.664555	412.817208	331.758447	-378.002170	435.397795	221.492301	-461.861724	312.291554	 56.967873	-438.248054	553.803474	 59.697204	-431.201711	527.838895	 56.086353	-352.421002	446.587962	862.567287	-747.621080	548.172121	749.022790	-712.275105	426.725641	664.583430	-738.310226	461.173380	415.954183	-669.905211	387.585238	337.953556	-764.357694	423.842940	221.488767	-682.509932	302.041678	 60.165272	-702.900923	547.920738	 54.529882	-701.395379	515.892993	 52.516991	-794.801095	471.829805	502.816854	-414.512551	484.042736	489.529632	-517.175055	440.225829	511.377524	-728.109510	455.603190	508.870079	-626.415118	414.473385	107.165734	-472.201283	393.404509	108.541913	-385.260209	424.538037	118.195294	-676.636160	377.814028	109.443366	-758.425483	302.041678	  0.000000	-702.900923	547.920738	  0.000000	-701.395379	515.892993	  0.000000	-794.801095	312.291554	  0.000000	-438.248054	553.803474	  0.000000	-431.201711	527.838895	  0.000000	-352.421002	401.176032	113.819330	-717.530821	447.914510	510.123801	-677.262314	561.183930	1039.364949	-563.171879	403.938953	107.853824	-428.730746	477.936271	496.173243	-465.843803	491.843562	996.123081	-633.670588	491.149696	995.437502	-493.792123	388.685119	1106.232515	-563.699802	384.831821	119.010955	-708.749114	482.245214	951.799964	-662.960955	447.914511	510.123799	-677.262313	372.438790	115.262524	-755.978551	440.225829	511.377524	-728.109510	397.224849	122.759385	-661.519682	455.603190	508.870079	-626.415118	397.309014	104.501377	-430.284302	481.857641	948.779935	-474.794097	477.936270	496.173246	-465.843805	385.867893	101.248195	-386.971072	471.829805	502.816854	-414.512551	408.750139	107.754559	-473.597536	484.042736	489.529632	-517.175055	481.857641	948.779935	-474.794097	482.245214	951.799964	-662.960955	403.938953	  0.000000	-428.730746	401.176032	  0.000000	-717.530821	
93	0.372	561.955501	1039.768531	-666.160257	560.394396	1038.978310	-460.246710	389.810729	1108.815122	-619.773171	387.526573	1103.626542	-507.642131	385.995059	1537.774559	-565.774225	371.634464	1299.742163	-563.191877	522.668139	1496.783042	-561.199296	597.662679	1327.868197	-557.679718	481.336153	899.037263	-389.707264	574.176611	793.201473	-459.091699	482.593901	695.154527	-388.229965	469.076084	412.337861	-481.672026	412.818876	331.759378	-378.006502	435.396954	221.492851	-461.867083	312.291722	 56.968062	-438.250320	553.804931	 59.696944	-431.202829	527.839809	 56.087117	-352.422466	446.566618	862.569327	-747.632161	548.153390	749.026634	-712.298102	426.708833	664.585143	-738.318663	461.161416	415.958236	-669.912653	387.575113	337.952206	-764.361781	423.837039	221.489079	-682.510749	302.041224	 60.165479	-702.901550	547.921492	 54.529518	-701.396894	515.893457	 52.516339	-794.802014	471.833517	502.820442	-414.523553	484.033404	489.530927	-517.187295	440.211752	511.379440	-728.119400	455.600451	508.872490	-626.426727	414.473681	107.166665	-472.202538	393.404289	108.543741	-385.263557	424.532737	118.195727	-676.635794	377.816639	109.441626	-758.424553	302.041224	  0.000000	-702.901550	547.921492	  0.000000	-701.396894	515.893457	  0.000000	-794.802014	312.291722	  0.000000	-438.250320	553.804931	  0.000000	-431.202829	527.839809	  0.000000	-352.422466	401.174688	113.818677	-717.530174	447.906102	510.125965	-677.273063	561.174946	1039.373430	-563.203484	403.938991	107.855203	-428.733047	477.933460	496.175685	-465.855424	491.830078	996.123650	-633.692793	491.155427	995.437632	-493.814268	388.668652	1106.220837	-563.707654	384.828641	119.010281	-708.749078	482.232556	951.799616	-662.982014	447.906104	510.125962	-677.273062	372.436124	115.260127	-755.975107	440.211752	511.379440	-728.119400	397.221157	122.760434	-661.523053	455.600451	508.872490	-626.426727	397.311819	104.500259	-430.285936	481.871681	948.778830	-474.815152	477.933460	496.175688	-465.855426	385.873434	101.247041	-386.972987	471.833517	502.820442	-414.523553	408.750209	107.753476	-473.598888	484.033404	489.530927	-517.187295	481.871681	948.778830	-474.815152	482.232556	951.799616	-662.982014	403.938991	  0.000000	-428.733047	401.174688	  0.000000	-717.530174	
94	0.376	561.937394	1039.775867	-666.188406	560.397363	1038.988135	-460.281469	389.786779	1108.802244	-619.780550	387.519791	1103.616079	-507.649444	385.817607	1537.751259	-565.808302	371.573501	1299.699637	-563.207255	522.511255	1496.806590	-561.249252	597.575611	1327.928741	-557.731304	481.357915	899.039346	-389.726710	574.186043	793.203545	-459.120161	482.608340	695.156677	-388.245818	469.070617	412.335705	-481.679683	412.821035	331.760238	-378.010890	435.396392	221.493421	-461.872551	312.292103	 56.968261	-438.252584	553.806462	 59.696692	-431.203950	527.840725	 56.087909	-352.423900	446.545936	862.571560	-747.643191	548.135544	749.030474	-712.320947	426.692779	664.586806	-738.327060	461.150204	415.962200	-669.919949	387.565458	337.951007	-764.365718	423.831611	221.489400	-682.511529	302.040800	 60.165759	-702.902156	547.922335	 54.529075	-701.398355	515.893767	 52.515689	-794.802747	471.837694	502.824015	-414.534562	484.024866	489.532187	-517.199503	440.198590	511.381378	-728.129240	455.598581	508.874921	-626.438276	414.474075	107.167522	-472.203825	393.404066	108.545582	-385.266740	424.527897	118.196266	-676.635547	377.819225	109.439953	-758.423268	302.040800	  0.000000	-702.902156	547.922335	  0.000000	-701.398355	515.893767	  0.000000	-794.802747	312.292103	  0.000000	-438.252584	553.806462	  0.000000	-431.203950	527.840725	  0.000000	-352.423900	401.173561	113.818109	-717.529408	447.898585	510.128149	-677.283758	561.167377	1039.382012	-563.234939	403.939076	107.856552	-428.735283	477.931280	496.178101	-465.867032	491.817802	996.124205	-633.714639	491.162704	995.437888	-493.836044	388.653286	1106.209167	-563.715000	384.825796	119.009702	-708.748846	482.220998	951.799249	-663.002667	447.898588	510.128147	-677.283757	372.433714	115.257885	-755.971441	440.198590	511.381378	-728.129240	397.217877	122.761518	-661.526255	455.598581	508.874921	-626.438276	397.314482	104.499253	-430.287552	481.887436	948.777831	-474.835789	477.931279	496.178104	-465.867033	385.878766	101.246048	-386.974787	471.837694	502.824015	-414.534562	408.750203	107.752458	-473.600321	484.024866	489.532187	-517.199503	481.887436	948.777831	-474.835789	482.220998	951.799249	-663.002667	403.939076	  0.000000	-428.735283	401.173561	  0.000000	-717.529408	
95	0.38	561.920172	1039.783294	-666.216423	560.402094	1038.998049	-460.315963	389.763543	1108.789349	-619.787311	387.514337	1103.605634	-507.656514	385.643061	1537.727334	-565.841698	371.514691	1299.656893	-563.223033	522.357229	1496.829312	-561.300276	597.490121	1327.988458	-557.784196	481.381054	899.041219	-389.746123	574.196715	793.205510	-459.148096	482.623666	695.158745	-388.261679	469.066091	412.333555	-481.687578	412.823685	331.761022	-378.015351	435.396105	221.493994	-461.878135	312.292706	 56.968466	-438.254831	553.808053	 59.696453	-431.205075	527.841641	 56.088727	-352.425305	446.525963	862.573980	-747.654209	548.118654	749.034334	-712.343621	426.677569	664.588413	-738.335441	461.139846	415.966053	-669.927085	387.556355	337.949965	-764.369514	423.826721	221.489727	-682.512274	302.040417	 60.166122	-702.902734	547.923273	 54.528553	-701.399754	515.893921	 52.515044	-794.803287	471.842356	502.827551	-414.545622	484.017211	489.533401	-517.211715	440.186465	511.383334	-728.139030	455.597666	508.877384	-626.449758	414.474562	107.168287	-472.205152	393.403835	108.547420	-385.269724	424.523566	118.196913	-676.635424	377.821776	109.438369	-758.421664	302.040417	  0.000000	-702.902734	547.923273	  0.000000	-701.399754	515.893921	  0.000000	-794.803287	312.292706	  0.000000	-438.254831	553.808053	  0.000000	-431.205075	527.841641	  0.000000	-352.425305	401.172671	113.817641	-717.528544	447.892065	510.130359	-677.294394	561.161132	1039.390683	-563.266194	403.939204	107.857854	-428.737439	477.929783	496.180476	-465.878669	491.806696	996.124740	-633.736129	491.171391	995.438260	-493.857455	388.638941	1106.197497	-563.721916	384.823322	119.009222	-708.748438	482.210515	951.798858	-663.022924	447.892068	510.130356	-677.294393	372.431588	115.255806	-755.967602	440.186465	511.383334	-728.139030	397.215054	122.762637	-661.529278	455.597666	508.877384	-626.449758	397.316978	104.498366	-430.289143	481.904761	948.776927	-474.856019	477.929783	496.180479	-465.878669	385.883857	101.245233	-386.976444	471.842356	502.827551	-414.545622	408.750102	107.751498	-473.601846	484.017211	489.533401	-517.211715	481.904761	948.776927	-474.856019	482.210515	951.798858	-663.022924	403.939204	  0.000000	-428.737439	401.172671	  0.000000	-717.528544	
